<svg id="Layer_1" data-name="Layer 1" xmlns="http://www.w3.org/2000/svg" width="475.24" height="130.09" viewBox="0 0 475.24 130.09"><path d="M61.52,111.47v-2A18.11,18.11,0,0,0,66,108.15a2.79,2.79,0,0,0,1.7-2.71,18.24,18.24,0,0,0-1.11-5.17C65.89,98,65.34,96.46,65,95.59L60.42,83.23a95.75,95.75,0,0,0-11.65-.49H43.9A62.6,62.6,0,0,0,31,83.47L26.49,94.86c-2,4.75-3,7.73-3,8.92a4.37,4.37,0,0,0,1.94,3.6c1.29,1,3.93,1.73,7.9,2.3v2a106.38,106.38,0,0,0-12.24-.86c-3.44,0-7.18.17-11.2.49v-1.78a11.92,11.92,0,0,0,5.66-2.89q1.49-1.29,3.91-6.12T24.4,90q2.49-5.7,3.6-8.89l9.86-23.57q1.85-4.24,3.78-8.89t3.67-9.32c1.15-3.11,2-5.62,2.52-7.5a1.56,1.56,0,0,1,.37-1.17l2-.13q1.9,6.84,4.18,13.11L67.33,78.31q5,13,7.53,19.16a46.73,46.73,0,0,0,4.45,8.83q1.6,2.28,6.58,2.77v2.15q-5.06-.5-9.72-.49c-2.47,0-4.75.06-6.86.18s-3.79.24-5,.34ZM42.05,56,35.1,73.94q-1.41,3.81-1.9,4.8A69.77,69.77,0,0,0,44,79.48l5.66-.13q5.1,0,9.15-.24Q56.61,72.83,56,71.66L51.58,60.34q-.75-1.85-2.8-6.7T45.8,47c-.78,1.72-1.44,3.29-2,4.71S42.67,54.56,42.05,56Z"/><path d="M85.82,45.08l-2.09-.49q2.91-7.7,5.2-14.64a12.87,12.87,0,0,0,2.21,1.75,8.39,8.39,0,0,0,2.65.65q3.93.49,17.89.49H142.8q1.17,0,7.5-.12c4.22-.08,6.64-.13,7.26-.13a11.46,11.46,0,0,0,3.44-.33,5.22,5.22,0,0,0,1.85-1.45,5.26,5.26,0,0,0,1.6,1.54A75.17,75.17,0,0,0,161.06,45l-2.64.37c.2-1.35.37-3.2.49-5.54a13.35,13.35,0,0,0-5.54-2.37,59.88,59.88,0,0,0-12.24-.89q-6.15,0-8.12.09a5,5,0,0,0-2.46.5,2.54,2.54,0,0,0-.62,1.75l-.37,8.25q0,2-.37,10.84-.06,2.22-.12,12.1T129,87.21q0,9.24.18,13a17,17,0,0,0,1.05,5.7,4.42,4.42,0,0,0,2.61,2.58,33.59,33.59,0,0,0,6,1.17c1.85.16,2.77.42,2.77.78a4.71,4.71,0,0,1-.12,1.44,19.44,19.44,0,0,1-2.4.12c-2.5-.16-4.7-.29-6.59-.37-2.74-.25-5-.37-6.64-.37a85.63,85.63,0,0,0-13.1,1.11c-2.63.45-4.06.68-4.31.68a1.7,1.7,0,0,1-1.32-.44,4.8,4.8,0,0,1-.83-1.59q.8-.26,3.81-1a40,40,0,0,0,6.18-1.78,4.17,4.17,0,0,0,2.37-2,10.15,10.15,0,0,0,.49-3.69,56.79,56.79,0,0,1,.5-7q0,.38.12-7.32t.18-10.92c0-2.15.07-4.72.07-7.72q0-13.17-.1-18.82t-.4-8.77a19.62,19.62,0,0,0-1-4.89q-5.3-.49-11.63-.5a92.68,92.68,0,0,0-10.3.44A17.57,17.57,0,0,0,90.9,38.5a7.06,7.06,0,0,0-2.83,2.22A31.54,31.54,0,0,0,85.82,45.08Z"/><path d="M214.46,111.47v-2a18.23,18.23,0,0,0,4.52-1.29,2.78,2.78,0,0,0,1.69-2.71,18.14,18.14,0,0,0-1.1-5.17c-.74-2.26-1.29-3.81-1.66-4.68l-4.55-12.36a95.87,95.87,0,0,0-11.65-.49h-4.87a62.56,62.56,0,0,0-12.89.73l-4.52,11.39c-2,4.75-3,7.73-3,8.92a4.37,4.37,0,0,0,1.94,3.6q1.94,1.44,7.9,2.3v2a106.53,106.53,0,0,0-12.24-.86c-3.45,0-7.18.17-11.2.49v-1.78a12,12,0,0,0,5.66-2.89q1.49-1.29,3.91-6.12T177.34,90q2.49-5.7,3.6-8.89l9.85-23.57q1.85-4.24,3.79-8.89c1.29-3.09,2.52-6.2,3.66-9.32s2-5.62,2.53-7.5a1.56,1.56,0,0,1,.37-1.17l2-.13q1.9,6.84,4.18,13.11l12.91,34.64q5,13,7.53,19.16a46.73,46.73,0,0,0,4.45,8.83q1.6,2.28,6.57,2.77v2.15q-5-.5-9.72-.49c-2.46,0-4.74.06-6.86.18s-3.78.24-5,.34ZM195,56l-7,17.91c-.94,2.54-1.58,4.14-1.9,4.8a69.67,69.67,0,0,0,10.75.74l5.65-.13c3.4,0,6.46-.08,9.16-.24q-2.14-6.28-2.76-7.45l-4.42-11.32q-.75-1.85-2.8-6.7t-3-6.65c-.78,1.72-1.44,3.29-2,4.71S195.61,54.56,195,56Z"/><path d="M230.08,33.46l.31-2.22,5,.12,10.09.37,2.59-.09c.78,0,1.95,0,3.5,0l6.16.12.12,2a44.57,44.57,0,0,0-6.67.74A1.52,1.52,0,0,0,249.89,36c0,1.11.86,3.79,2.56,8.06s3.8,9.18,6.28,14.73,4.28,9.57,5.39,12l8.63,18.52,1.72,3.51q1.72,3.57,2.53,5.29,2.08-3.69,5-9.57t5.44-11.35q2.55-5.48,2.8-6l8-17.66q1.78-3.87,3.54-8.46a21.55,21.55,0,0,0,1.75-6.55c0-2.71-2.25-4.24-6.77-4.61l.37-2.53q7.08.62,14.52.62l3.51-.09c1,0,2.32,0,3.88,0v1.72A21.07,21.07,0,0,0,313,36.5a17.61,17.61,0,0,0-4.07,5q-2,3.43-6.95,13.41L288.12,82.49q-3.93,7.64-7.78,16.73t-4.45,13.54L274,113a78,78,0,0,0-3.14-7.69l-4.19-9.23q-1.9-4.92-5.17-11.69L251.13,62.56Q239.69,38.74,237.4,36.22a7,7,0,0,0-3-2.12A16.68,16.68,0,0,0,230.08,33.46Z"/><path d="M329.69,34.13V31.49c4.63.24,7.52.41,8.67.49,4.18.16,7,.25,8.43.25.49,0,2.62-.09,6.4-.25s7.32-.33,10.64-.49v2.89a30.54,30.54,0,0,0-7.38.58,4.82,4.82,0,0,0-2.95,2.31q-2,3.88-2,29.62,0,17.73,0,22.44t.21,10.07a25.44,25.44,0,0,0,.68,6.1,4.41,4.41,0,0,0,3,2.68,26.42,26.42,0,0,0,7.94.95l-.25,2.34c-.57,0-1.71,0-3.41-.09s-3.47-.12-5.29-.16l-4.22-.09c-1,0-2.11,0-3.38,0-1.81,0-3.31,0-4.52,0l-4.83.09c-2,0-3.83.09-5.45.16s-2.59.09-2.92.09l-.12-2.34q6.65-.37,9-1.54a6.23,6.23,0,0,0,3.2-3.75q1.23-3.32,1.57-12.57T343,71.75q0-9.27-.62-26.68a24.28,24.28,0,0,0-.95-6.85,5.34,5.34,0,0,0-3.45-3A26.59,26.59,0,0,0,329.69,34.13Zm8.61-7.93L350.42,4.29H359L341.25,26.2Z"/><path d="M379.45,71.54a38.14,38.14,0,0,1,5.94-20.67,43.45,43.45,0,0,1,15.78-15A41.8,41.8,0,0,1,422,30.32a39.28,39.28,0,0,1,14.82,3A42.85,42.85,0,0,1,450,41.55a39.23,39.23,0,0,1,9.23,13,41.87,41.87,0,0,1-2,37.31,40.78,40.78,0,0,1-15.23,15.23,43.15,43.15,0,0,1-22.06,5.66,38.26,38.26,0,0,1-17-3.69A39.38,39.38,0,0,1,390,99.1a44.09,44.09,0,0,1-7.93-13.44A40.89,40.89,0,0,1,379.45,71.54Zm9.17-4.68a43.1,43.1,0,0,0,5.05,20.37,41.46,41.46,0,0,0,13.53,15.35,31.54,31.54,0,0,0,18,5.75,27.88,27.88,0,0,0,13.44-3.48,26.85,26.85,0,0,0,10.55-10.73q4.13-7.26,4.12-17.91a47.17,47.17,0,0,0-2.74-16.11,42.48,42.48,0,0,0-7.63-13.39,35.5,35.5,0,0,0-11.28-8.92,30,30,0,0,0-13.48-3.17,29,29,0,0,0-14.52,3.85A28.6,28.6,0,0,0,392.74,49.7,34.59,34.59,0,0,0,388.62,66.86Z"/><path d="M399.62,81.22h2.5s1.62-9.08,2.5-10.42,26.49-1,29.58.42,4.58,6.25,4.58,6.25l2.92-.42L440.45,55.8l-3.33.84s1.36,6.06-.84,7.91-28.43,3.62-30.83,1.67-2.92-10.42-2.92-10.42h-2.91"/></svg>